G04 #@! TF.FileFunction,Soldermask,Bot*
%FSLAX46Y46*%
G04 Gerber Fmt 4.6, Leading zero omitted, Abs format (unit mm)*
G04 Created by KiCad (PCBNEW 4.0.7) date 01/07/18 23:21:39*
%MOMM*%
%LPD*%
G01*
G04 APERTURE LIST*
%ADD10C,0.100000*%
%ADD11R,1.473200X0.355600*%
%ADD12R,1.600000X1.000000*%
%ADD13R,1.500000X4.000000*%
%ADD14C,4.064000*%
%ADD15C,1.600200*%
G04 APERTURE END LIST*
D10*
D11*
X154559000Y-89738200D03*
X154559000Y-90398600D03*
X154559000Y-91033600D03*
X154559000Y-91694000D03*
X154559000Y-92354400D03*
X154559000Y-92989400D03*
X154559000Y-93649800D03*
X148717000Y-93649800D03*
X148717000Y-92989400D03*
X148717000Y-92354400D03*
X148717000Y-91694000D03*
X148717000Y-91033600D03*
X148717000Y-90398600D03*
X148717000Y-89738200D03*
D12*
X158242000Y-90194000D03*
X158242000Y-93194000D03*
D13*
X135120000Y-85310000D03*
X137890000Y-85310000D03*
X140660000Y-85310000D03*
X143430000Y-85310000D03*
X146200000Y-85310000D03*
X148970000Y-85310000D03*
X151740000Y-85310000D03*
X154510000Y-85310000D03*
X157280000Y-85310000D03*
X160050000Y-85310000D03*
X162820000Y-85310000D03*
D14*
X136430660Y-99170000D03*
X161429340Y-99170000D03*
D15*
X153760000Y-101710000D03*
X152615000Y-99170000D03*
X151470000Y-101710000D03*
X149180000Y-101710000D03*
X146890000Y-101710000D03*
X144600000Y-101710000D03*
X150325000Y-99170000D03*
X148035000Y-99170000D03*
X145745000Y-99170000D03*
X143455000Y-99170000D03*
X153760000Y-96630000D03*
X151470000Y-96630000D03*
X149180000Y-96630000D03*
X146890000Y-96630000D03*
X144600000Y-96630000D03*
M02*
