M48
;DRILL file {KiCad 4.0.7} date 01/07/18 23:22:47
;FORMAT={-:-/ absolute / metric / decimal}
FMAT,2
METRIC,TZ
T1C0.400
T2C1.191
T3C1.200
T4C3.200
%
G90
G05
M71
T1
X141.732Y-92.71
X150.622Y-92.71
X157.226Y-99.314
X158.242Y-91.694
T2
X144.6Y-96.63
X144.6Y-101.71
X145.745Y-99.17
X146.89Y-96.63
X146.89Y-101.71
X148.035Y-99.17
X149.18Y-96.63
X149.18Y-101.71
X150.325Y-99.17
X151.47Y-96.63
X151.47Y-101.71
X152.615Y-99.17
X153.76Y-96.63
X153.76Y-101.71
T3
X143.455Y-99.17
T4
X136.431Y-99.17
X161.429Y-99.17
T0
M30
